<svg width="36" height="36" viewBox="0 0 36 36" fill="none" xmlns="http://www.w3.org/2000/svg">
  <path fill-rule="evenodd" clip-rule="evenodd" d="M18.0914 36C28.083 36 36.1828 27.9411 36.1828 18C36.1828 8.05887 28.083 0 18.0914 0C8.09979 0 0 8.05887 0 18C0 27.9411 8.09979 36 18.0914 36ZM23.8936 24.5273C23.2377 25.1033 22.5233 25.5754 21.7692 25.939L23.3757 29.0118C24.38 28.5264 25.3291 27.9051 26.2005 27.1239C26.2189 27.0939 26.2419 27.0664 26.2658 27.0379C26.2838 27.0166 26.3022 26.9946 26.3194 26.9706C26.3813 26.92 26.441 26.8678 26.5016 26.8147C26.5518 26.7707 26.6027 26.7262 26.6559 26.6816L26.7355 26.6081C28.0872 25.2431 29.0719 23.7219 29.6777 22.0433C29.7966 21.6802 29.8933 21.3022 29.9785 20.9257C30.2075 19.9511 30.3166 18.921 30.3166 17.8451C30.3238 16.8155 30.2184 15.8369 30.0137 14.9168C29.9129 14.4329 29.7837 13.9577 29.6441 13.5107C29.1598 12.242 28.4578 11.0705 27.5424 9.99304C27.2798 9.69475 27.0116 9.40521 26.7355 9.12698C26.7225 9.11426 26.7103 9.10312 26.6991 9.09295L26.699 9.09293L26.699 9.09291L26.699 9.09288L26.699 9.09285C26.6817 9.07716 26.6669 9.06375 26.6559 9.05035L26.4699 8.79269C26.4524 8.78715 26.4334 8.78014 26.4147 8.77326L26.4146 8.77323C26.3934 8.76542 26.3727 8.75777 26.3551 8.75258C25.6413 8.07321 24.8819 7.50338 24.0756 7.04206C24.0565 7.01275 24.0342 6.98909 24.0115 6.96852C23.7866 6.85023 23.5597 6.73349 23.3344 6.63629L21.7692 9.71789C22.4163 10.0398 23.0273 10.4497 23.614 10.9522C23.8099 11.1234 24.0027 11.3075 24.1955 11.5009L24.2455 11.5551L24.2455 11.5551C24.3502 11.6684 24.4615 11.789 24.5599 11.9103C24.8737 12.2657 25.1657 12.6287 25.4242 13.0253C25.4639 13.0894 25.5046 13.154 25.5455 13.2188L25.5457 13.219L25.5457 13.2192C25.607 13.3162 25.6685 13.4137 25.7271 13.5107C25.9571 13.9278 26.1618 14.3562 26.3194 14.8088C26.6678 15.7412 26.8363 16.7636 26.8363 17.8451C26.8363 18.974 26.6559 20.0257 26.2791 21.0008C26.1421 21.3572 25.9747 21.7002 25.7932 22.0433C25.6754 22.2485 25.556 22.4393 25.4242 22.6352C25.1585 23.0533 24.867 23.4622 24.531 23.8577C24.4788 23.915 24.4262 23.9751 24.3723 24.0365L24.3722 24.0366L24.3722 24.0367C24.315 24.1019 24.2564 24.1687 24.1955 24.2357V24.2665L24.1064 24.343C24.0348 24.4043 23.963 24.4659 23.8936 24.5273ZM15.4211 16.0642H17.5279H21.4352V19.7804H17.5279H15.4211V16.0642ZM10.3928 11.2007C11.0839 11.897 11.9259 12.2421 12.9318 12.2421H12.9829C13.9433 12.2421 14.7792 11.9068 15.4656 11.2408C16.1562 10.5439 16.5004 9.70614 16.5159 8.7182C16.5247 7.72923 16.1784 6.89402 15.5002 6.19614C14.8076 5.49671 13.9666 5.15471 12.9628 5.15471C11.9683 5.14391 11.1288 5.47614 10.4248 6.15397C9.73889 6.84157 9.38998 7.6778 9.38998 8.67757C9.38068 9.665 9.71821 10.4997 10.3928 11.2007ZM7.61327 21.1716C6.60325 21.1716 5.75658 20.8224 5.06083 20.1225C4.3806 19.4184 4.04151 18.5766 4.05547 17.584C4.05547 16.5827 4.40282 15.7398 5.09236 15.047C5.8031 14.3666 6.64822 14.0313 7.64377 14.0421C8.65482 14.0421 9.50046 14.3877 10.1947 15.0902C10.8785 15.7927 11.2295 16.6331 11.2155 17.6256C11.2036 18.6228 10.8568 19.4627 10.1595 20.1631C9.46945 20.8348 8.62535 21.1716 7.65514 21.1716H7.61327ZM10.4884 29.1199C11.1805 29.8172 12.021 30.1639 13.0232 30.1639H13.0666C14.0301 30.1639 14.8701 29.828 15.5539 29.1626C16.2492 28.4631 16.5945 27.629 16.6074 26.6379C16.6193 25.6515 16.2724 24.8174 15.5891 24.1195C14.899 23.42 14.0596 23.076 13.0553 23.076C12.0649 23.0667 11.2218 23.3995 10.5209 24.0763C9.8319 24.7634 9.48609 25.6006 9.48609 26.5983C9.47472 27.5858 9.81226 28.4199 10.4884 29.1199Z" fill="url(#paint0_linear_465_1070)"/>
  <defs>
    <linearGradient id="paint0_linear_465_1070" x1="-8.11854" y1="18.39" x2="18.7976" y2="44.2624" gradientUnits="userSpaceOnUse">
      <stop stop-color="#FFCD05"/>
      <stop offset="1" stop-color="#D89124"/>
    </linearGradient>
  </defs>
</svg>